<svg width="32" height="32" viewBox="0 0 294 294" fill="none" xmlns="http://www.w3.org/2000/svg">
<circle cx="147" cy="147" r="142" fill="#1ABC9C" stroke="#34495E" stroke-width="10"/>
<path d="M230 194.5H69.0002C44.4236 194.5 24.5002 174.577 24.5002 150C24.5002 125.423 44.4236 105.5 69.0002 105.5H230C254.577 105.5 274.5 125.423 274.5 150C274.5 174.577 254.577 194.5 230 194.5Z" fill="#34495E" stroke="#1ABC9C" stroke-width="9"/>
<path d="M60.9202 172C60.7602 172 60.6602 171.9 60.6202 171.7L53.5402 130.48C53.5002 130.32 53.5602 130.24 53.7202 130.24H60.4402C60.6002 130.24 60.7002 130.32 60.7402 130.48L64.5802 157.6L68.5402 130.48C68.5802 130.32 68.7002 130.24 68.9002 130.24H74.3002C74.4602 130.24 74.5602 130.32 74.6002 130.48L78.5002 157.6L82.4002 130.48C82.4402 130.32 82.5402 130.24 82.7002 130.24H89.3602C89.5602 130.24 89.6402 130.32 89.6002 130.48L82.4602 171.7C82.4202 171.78 82.3602 171.86 82.2802 171.94C82.2002 171.98 82.1602 172 82.1602 172H74.9002C74.7802 172 74.6802 171.9 74.6002 171.7L71.5402 150.16L68.4802 171.7C68.4402 171.9 68.3402 172 68.1802 172H60.9202ZM93.3746 172C93.2146 172 93.1346 171.9 93.1346 171.7L93.1946 130.48C93.1946 130.32 93.2746 130.24 93.4346 130.24H112.695C112.855 130.24 112.935 130.34 112.935 130.54V137.26C112.935 137.42 112.855 137.5 112.695 137.5H100.395V146.86H112.695C112.855 146.86 112.935 146.94 112.935 147.1L112.995 153.88C112.995 154.04 112.915 154.12 112.755 154.12H100.395V164.62H112.755C112.915 164.62 112.995 164.72 112.995 164.92V171.76C112.995 171.92 112.915 172 112.755 172H93.3746ZM118.57 172C118.41 172 118.33 171.9 118.33 171.7L118.45 130.48C118.45 130.32 118.53 130.24 118.69 130.24H130.21C132.49 130.24 134.53 130.8 136.33 131.92C138.13 133 139.55 134.44 140.59 136.24C141.63 138.04 142.15 140 142.15 142.12C142.15 143.84 141.75 145.44 140.95 146.92C140.19 148.4 139.27 149.6 138.19 150.52C139.35 151.68 140.25 153.02 140.89 154.54C141.53 156.06 141.85 157.66 141.85 159.34C141.85 161.66 141.29 163.78 140.17 165.7C139.05 167.62 137.53 169.16 135.61 170.32C133.73 171.44 131.63 172 129.31 172H118.57ZM125.65 146.8H130.21C131.61 146.8 132.73 146.32 133.57 145.36C134.45 144.36 134.89 143.28 134.89 142.12C134.89 140.84 134.43 139.74 133.51 138.82C132.59 137.86 131.49 137.38 130.21 137.38H125.65V146.8ZM125.59 164.68H129.31C130.75 164.68 131.99 164.16 133.03 163.12C134.07 162.04 134.59 160.78 134.59 159.34C134.59 157.9 134.07 156.66 133.03 155.62C131.99 154.58 130.75 154.06 129.31 154.06H125.65L125.59 164.68ZM146.402 172C146.242 172 146.162 171.9 146.162 171.7L146.282 130.54C146.282 130.34 146.362 130.24 146.522 130.24H153.242C153.402 130.24 153.482 130.34 153.482 130.54V144.76L162.902 130.48C163.022 130.32 163.162 130.24 163.322 130.24H170.222C170.382 130.24 170.422 130.32 170.342 130.48L159.962 147.04L171.602 171.76C171.682 171.92 171.582 172 171.302 172H163.982C163.782 172 163.662 171.92 163.622 171.76L155.522 154.12L153.422 157.42V171.7C153.422 171.9 153.342 172 153.182 172H146.402ZM183.571 172.6C181.411 172.6 179.431 172.06 177.631 170.98C175.871 169.86 174.451 168.4 173.371 166.6C172.291 164.76 171.751 162.74 171.751 160.54L171.811 141.52C171.811 139.32 172.331 137.32 173.371 135.52C174.451 133.72 175.891 132.28 177.691 131.2C179.491 130.12 181.451 129.58 183.571 129.58C185.731 129.58 187.691 130.12 189.451 131.2C191.211 132.28 192.611 133.72 193.651 135.52C194.731 137.32 195.271 139.32 195.271 141.52L195.331 160.54C195.331 162.74 194.791 164.76 193.711 166.6C192.671 168.4 191.251 169.86 189.451 170.98C187.691 172.06 185.731 172.6 183.571 172.6ZM183.571 165.34C184.771 165.34 185.811 164.86 186.691 163.9C187.611 162.9 188.071 161.78 188.071 160.54L188.011 141.52C188.011 140.2 187.591 139.08 186.751 138.16C185.911 137.24 184.851 136.78 183.571 136.78C182.331 136.78 181.271 137.24 180.391 138.16C179.511 139.04 179.071 140.16 179.071 141.52V160.54C179.071 161.86 179.511 163 180.391 163.96C181.271 164.88 182.331 165.34 183.571 165.34ZM205.131 172C204.971 172 204.891 171.9 204.891 171.7V137.5H197.091C196.891 137.5 196.791 137.4 196.791 137.2L196.851 130.48C196.851 130.32 196.931 130.24 197.091 130.24H219.891C220.091 130.24 220.191 130.32 220.191 130.48V137.2C220.191 137.4 220.111 137.5 219.951 137.5H212.091L212.151 171.7C212.151 171.9 212.071 172 211.911 172H205.131ZM223.394 172C223.234 172 223.154 171.9 223.154 171.7L223.214 130.48C223.214 130.32 223.314 130.24 223.514 130.24H230.174C230.374 130.24 230.474 130.32 230.474 130.48L230.414 146.8H239.414V130.48C239.414 130.32 239.494 130.24 239.654 130.24H246.314C246.514 130.24 246.614 130.32 246.614 130.48L246.734 171.7C246.734 171.9 246.634 172 246.434 172H239.714C239.514 172 239.414 171.9 239.414 171.7V154.06H230.414V171.7C230.414 171.9 230.334 172 230.174 172H223.394Z" fill="#1ABC9C"/>
<line x1="149.5" y1="108" x2="149.5" y2="192" stroke="#1ABC9C" stroke-width="9"/>
</svg>
